<svg width="68" height="68" viewBox="0 0 68 68" fill="none" xmlns="http://www.w3.org/2000/svg">
<path d="M67.2209 33.7063C67.2209 51.9031 52.4695 66.6545 34.2727 66.6545C16.0759 66.6545 1.32456 51.9031 1.32456 33.7063C1.32456 15.5095 16.0759 0.758152 34.2727 0.758152C52.4695 0.758152 67.2209 15.5095 67.2209 33.7063Z" fill="white" stroke="black" stroke-width="1.5163"/>
<path d="M53.1946 29.9701C52.8605 28.9847 51.9252 28.2832 50.8229 28.2832H32.4511C31.3488 28.2832 30.4302 28.9847 30.0794 29.9701L26.6055 39.9744V53.3357C26.6055 54.2543 27.357 55.0059 28.2756 55.0059H29.9458C30.8644 55.0059 31.616 54.2543 31.616 53.3357V51.6656H51.658V53.3357C51.658 54.2543 52.4096 55.0059 53.3282 55.0059H54.9984C55.9169 55.0059 56.6685 54.2543 56.6685 53.3357V39.9744L53.1946 29.9701ZM32.4511 46.6551C31.0648 46.6551 29.9458 45.5361 29.9458 44.1498C29.9458 42.7636 31.0648 41.6446 32.4511 41.6446C33.8373 41.6446 34.9563 42.7636 34.9563 44.1498C34.9563 45.5361 33.8373 46.6551 32.4511 46.6551ZM50.8229 46.6551C49.4367 46.6551 48.3177 45.5361 48.3177 44.1498C48.3177 42.7636 49.4367 41.6446 50.8229 41.6446C52.2092 41.6446 53.3282 42.7636 53.3282 44.1498C53.3282 45.5361 52.2092 46.6551 50.8229 46.6551ZM29.9458 38.3042L32.4511 30.7885H50.8229L53.3282 38.3042H29.9458Z" fill="#234577"/>
<path d="M44.7603 26.7461C44.7603 26.68 44.7663 26.614 44.7663 26.5419C44.7663 23.6238 42.4006 21.2581 39.4824 21.2581H30.3558V26.5419C30.3558 27.8689 29.281 28.9437 27.954 28.9437C26.627 28.9437 25.5522 27.8689 25.5522 26.5419V19.3367H25.5763C25.8164 17.1751 27.6478 15.4938 29.8754 15.4938H36.6003C36.7685 15.4938 36.9366 15.5059 37.0987 15.5239L39.5065 13.1161C40.8214 11.8011 42.947 11.8011 44.2619 13.1161L48.9514 17.8055C50.2663 19.1205 50.2663 21.2461 48.9514 22.561L44.7663 26.7461H44.7603ZM23.6308 19.3367V26.5419C23.6308 28.9317 25.5642 30.8651 27.954 30.8651C30.3437 30.8651 32.2772 28.9317 32.2772 26.5419V23.1795H39.4824C41.3378 23.1795 42.8449 24.6866 42.8449 26.5419C42.8449 28.1751 41.68 29.5381 40.1309 29.8444C40.6233 30.3607 40.9235 31.0573 40.9235 31.8258C40.9235 33.417 39.6326 34.7079 38.0414 34.7079H37.8793C37.9873 35.0081 38.0414 35.3324 38.0414 35.6686C38.0414 37.2598 36.7504 38.5507 35.1593 38.5507H25.5522C25.4982 38.5507 25.4442 38.5507 25.3901 38.5447L23.1265 40.8084C21.8115 42.1234 19.6859 42.1234 18.371 40.8084L13.6815 36.125C12.3666 34.81 12.3666 32.6844 13.6815 31.3695L17.8666 27.1844V25.1009C17.8666 21.9186 20.4485 19.3367 23.6308 19.3367Z" fill="#965A5A"/>
</svg>
